<svg width="300" height="400" viewBox="0 0 300 400" xmlns="http://www.w3.org/2000/svg"><title>Sass Deprecate Logo</title><g fill="none" fill-rule="evenodd"><path d="M5 16C5 8.268 11.267 2 19 2h211l65 82v298.994c0 7.735-6.26 14.006-14 14.006H19c-7.732 0-14-6.264-14-14V16z" fill="#C69"/><path d="M295 84L230 2v67.997C230 77.73 236.262 84 244.004 84H295z" fill-opacity=".4" fill="#FFF"/><text opacity=".4" font-family="Consolas" font-size="64" fill="#FFF"><tspan x="53" y="114">10</tspan></text><text opacity=".4" font-family="Consolas" font-size="64" fill="#FFF"><tspan x="53" y="185">11</tspan></text><text opacity=".4" font-family="Consolas" font-size="64" fill="#FFF"><tspan x="53" y="256">12</tspan></text><text font-family="Consolas-Bold, Consolas" font-size="64" font-weight="bold" fill="#FFF"><tspan x="53" y="344">scss</tspan></text><path d="M199.817 130.372c1.482-2.967 3.884-2.966 5.366 0l30.134 60.343c1.482 2.967-.003 5.372-3.31 5.372h-59.015c-3.31 0-4.79-2.406-3.31-5.372l30.135-60.343z" stroke="#FFF" stroke-width="6"/><text font-family="Consolas" font-size="54" fill="#FFF" transform="translate(169 128)"><tspan x="18" y="58">!</tspan></text><path fill-opacity=".25" fill="#000" d="M243 84h52l-52 5"/></g></svg>